#!OML:ASF E:/inclinewalkrobotboard/Project1/Captureday1/Session1/subject1.ASF
:FULLY-SPECIFIED
:DEGREES
1
root 0 0 0 -3.07591393598808 -0.9856014177353232 -0.7887330186406546
lowerback 10.34708786790519 -0.5397140191521019 -1.148886802798219
upperback 1.0246201725225657 -0.7395381142202033 1.8628598816230153
thorax -4.608147246963241 -0.308161266182093 2.7242084736534307
lowerneck -17.77199974700838 -3.2321217552035044 -2.703399364848857
upperneck 19.426496440579513 -4.09986931677131 1.42325138092288
head 9.086524663897716 -1.9913876063691518 0.3969859856687803
rclavicle -5.560451730411667E-16 -1.449803821024616E-16
rhumerus -32.03542853350811 -20.198270120663057 -79.7207725068602
rradius 24.07851557339793
rwrist 2.912058568410525
rhand -16.80901652899606 26.85833630331978
rfingers 7.125020000000005
rthumb 9.421169531731275 -2.8610685113305365
lclavicle -4.726705390254369E-16 -2.0252539104783558E-16
lhumerus -33.09166341353712 0.9383303724249614 82.85202133942
lradius 27.532916548014533
lwrist 5.4918201177637656
lhand -26.5808516580395 24.220549917472702
lfingers 7.125020000000004
lthumb -0.017919256215630064 54.145098009148406
rfemur -10.657143656538048 4.993174312338364 27.20884038744179
rtibia 38.9187436796206
rfoot -8.417723297506559 -6.014840728229001
rtoes 3.7835400228073803
lfemur -15.48885300696364 0.7321891243554302 -16.09238550354482
ltibia 50.66412760009092
lfoot -2.2509589395396787 -7.869871307103762
ltoes -7.3281241803522335
2
root 0 0 0 -3.076318885983799 -1.9735910829044796 -2.25917641204684
lowerback 10.37409125397945 0.05326609646971453 0.4545208429286625
upperback 1.0618766774548454 0.23079511971691957 1.9175148629450112
thorax -4.576658889872233 0.1370943959640829 1.7450097533216522
lowerneck -17.914534978555253 -3.4051574001699714 -2.647907743070321
upperneck 19.585138790646432 -4.3772079805890405 1.5248786826049572
head 9.16320606156372 -2.1105205590605984 0.3843221197508797
rclavicle -5.517356076112275E-16 -1.2558800724387373E-16
rhumerus -32.05908023747038 -20.198654422309957 -79.74895957754833
rradius 24.05710516251311
rwrist 2.8877296523761125
rhand -16.799157341784635 26.911497148022747
rfingers 7.125020000000005
rthumb 9.432612821867444 -2.814953767443427
lclavicle -4.661073404039964E-16 -1.9325176056739184E-16
lhumerus -33.01451245456383 0.9134962893975629 82.80148030166954
lradius 27.596333815647213
lwrist 5.457422159612142
lhand -26.608576703702802 24.08808327362365
lfingers 7.125020000000004
lthumb -0.043492499909078663 54.01897087777591
rfemur -8.960245706814902 5.420418210457463 28.047084069035385
rtibia 37.20408753121172
rfoot -9.071668893662054 -5.752290693448218
rtoes 3.9770386513226805
lfemur -17.439722366787706 0.822526618669994 -15.310338912365035
ltibia 51.28233750096019
lfoot -2.1395439493900223 -7.525393972305646
ltoes -7.200688653728729
3
root 0 0 0 -2.9887837602780905 -3.2265799558493446 -3.9968712243522093
lowerback 10.412778187619386 0.8083013452312613 2.400747384306675
upperback 1.0278788016209375 1.4627124588916887 1.9381189910774979
thorax -4.629150772756063 0.6990727765944995 0.4925230919381793
lowerneck -17.917966450144547 -3.546656220266221 -2.48803628416972
upperneck 19.733237238719166 -4.61567170771705 1.5133883242773254
head 9.214339903572515 -2.2131802178985995 0.32398649534055346
rclavicle -5.371739554561036E-16 -1.1775730118438083E-16
rhumerus -31.570547424901363 -19.847150263317594 -79.48435133016365
rradius 24.509668707443936
rwrist 3.0751818534645006
rhand -16.961121331410194 26.164317164211084
rfingers 7.125020000000005
rthumb 9.279517880653 -3.575179050425259
lclavicle -4.57596075914758E-16 -1.8147303549190863E-16
lhumerus -33.23144852443943 0.9757832747306094 82.9445419070632
lradius 27.4287347465036
lwrist 5.560428467182064
lhand -26.53611389839565 24.453451849050914
lfingers 7.125020000000004
lthumb 0.027099258289682293 54.38715868453234
rfemur -6.7298824238746615 5.984911645480761 29.148262147746976
rtibia 34.9630766174619
rfoot -9.882025235894362 -5.392141279149499
rtoes 4.259803871149811
lfemur -18.31563567859667 0.588090610299842 -15.143707313400032
ltibia 49.54359511470416
lfoot -2.8360191159790666 -6.600779414142498
ltoes -6.762381633982993
4
root 0 0 0 -2.7373581728186624 -4.3371765073879205 -5.322905328686733
lowerback 10.47703795156997 1.4735909418311393 3.995950978747702
upperback 0.8281869198393633 2.5370642593007657 1.87271835105174
thorax -4.877740424048716 1.1883780398059638 -0.634874904852689
lowerneck -17.55827109811168 -3.5068828404005545 -2.1341926427278475
upperneck 19.788448582379516 -4.587453181072339 1.2027446244202937
head 9.173226242924343 -2.1975670101684823 0.1706233562070384
rclavicle -5.119352599965888E-16 -1.172507921218142E-16
rhumerus -30.639481882131143 -19.194862132335555 -78.96035075604256
rradius 25.375476681418768
rwrist 3.451183743802881
rhand -17.27227775315818 24.718756642723733
rfingers 7.125020000000005
rthumb 8.981660596709656 -5.040471022223187
lclavicle -4.502837394282404E-16 -1.6659033873753614E-16
lhumerus -33.81267003096285 1.148387663246911 83.32387199792491
lradius 26.976221084372945
lwrist 5.830008637537409
lhand -26.339733045706282 25.4259153463343
lfingers 7.125020000000004
lthumb 0.21682677498350955 55.357925439540665
rfemur -4.7540541844689965 6.469484828552286 30.119598526372094
rtibia 33.12971521405304
rfoot -10.497591803124413 -5.040523512760206
rtoes 4.589516025613736
lfemur -18.264649185477627 0.056073343629623684 -15.493116404210015
ltibia 45.72183251269457
lfoot -4.200687411930371 -5.164958387318983
ltoes -6.057718818501822
5
root 0 0 0 -2.422899036571767 -5.066713917931141 -6.018943359376211
lowerback 10.54628126469074 1.9094819990670893 4.945461663173207
upperback 0.5491209291849863 3.226573853379298 1.7588048075062477
thorax -5.218767717528962 1.500866980502479 -1.392551967547679
lowerneck -17.008843834578947 -3.333343905312538 -1.7087631463599737
upperneck 19.74567738627877 -4.3517286681021545 0.7387623971082116
head 9.066550993199174 -2.0901864923037987 -0.018689843602268996
rclavicle -4.862388738903127E-16 -1.25378780629784E-16
rhumerus -29.552153836990545 -18.441256628974656 -78.33879393093065
rradius 26.388251147682986
rwrist 3.898711654592147
rhand -17.63649350655322 23.020221568028774
rfingers 7.125020000000005
rthumb 8.63055826415071 -6.760008084296613
lclavicle -4.476626747404485E-16 -1.5873378191844344E-16
lhumerus -34.37107804248217 1.3183560657673097 83.68589338671791
lradius 26.53900239320739
lwrist 6.0847918953940034
lhand -26.14993470986589 26.352721072143225
lfingers 7.125020000000004
lthumb 0.3993274734171033 56.279134079970795
rfemur -3.5391781464898386 6.756881476970747 30.71087127077898
rtibia 32.07510743163285
rfoot -10.845891579495214 -4.816589367989927
rtoes 4.809887014295017
lfemur -17.32669720770722 -0.7298840158324209 -16.300402363479805
ltibia 40.19940784368664
lfoot -6.054739501186712 -3.352720345417047
ltoes -5.143493662568728
6
root 0 0 0 -2.198954921232973 -5.451039380808059 -6.311416444468359
lowerback 10.59256920116167 2.1416049865622946 5.4048000165383945
upperback 0.34215931447053716 3.585618006452612 1.667838279920898
thorax -5.47013300337343 1.6610726444828825 -1.800167205137953
lowerneck -16.597021183983657 -3.1806772115990682 -1.405511785316139
upperneck 19.67697306461217 -4.134372332246444 0.3932613165556895
head 8.973462540645732 -1.9920300704838048 -0.15396116020956813
rclavicle -4.802688264795664E-16 -1.4822340553485026E-16
rhumerus -28.637608964230864 -17.812766042674216 -77.8116197302071
rradius 27.239100495686674
rwrist 4.280016480986449
rhand -17.94306843036759 21.587897900026448
rfingers 7.125020000000005
rthumb 8.333884825627294 -8.20865295770542
lclavicle -4.558300803225938E-16 -1.6466092835534485E-16
lhumerus -34.7020153385715 1.424330790377837 83.8981657298489
lradius 26.276960753383086
lwrist 6.230617303212996
lhand -26.036644293168592 26.89157560272035
lfingers 7.125020000000004
lthumb 0.5069690384287577 56.81386645239036
rfemur -3.016026861557741 6.874752993910169 30.959454534255688
rtibia 31.644203914915785
rfoot -11.0018715418549 -4.723655902621426
rtoes 4.889676465884421
lfemur -15.872777982054583 -1.5023542454952303 -17.28138887199406
ltibia 34.82806138498694
lfoot -7.795317102750031 -1.7489689176209142
ltoes -4.312711605175178
7
root 0 0 0 -2.0845076165310488 -5.607681294840006 -6.398675534667786
lowerback 10.608672942975764 2.242797068499188 5.570059006380496
upperback 0.23546703605242025 3.7364451906963962 1.6147638864236962
thorax -5.5950965163390824 1.7268665895141968 -1.9739536082477787
lowerneck -16.386148265046113 -3.0955802952313465 -1.2523133611908182
upperneck 19.611250507968496 -4.010117483179782 0.22082585901185148
head 8.914543363365036 -1.9354868879861575 -0.2200516089624801
rclavicle -4.975611907273984E-16 -1.935699616539578E-16
rhumerus -27.733323750971685 -17.200793670713395 -77.28447036606556
rradius 28.07882029691379
rwrist 4.664570615995504
rhand -18.247066721587075 20.166694947553182
rfingers 7.125020000000005
rthumb 8.039311691428425 -9.640277397457352
lclavicle -4.799898922117226E-16 -1.8554108910232994E-16
lhumerus -35.06561956193168 1.5446618074431193 84.13034230368962
lradius 25.98757294587769
lwrist 6.387764705378558
lhand -25.911558979384807 27.476862321097865
lfingers 7.125020000000004
lthumb 0.6243230795586041 57.39597723109882
rfemur -3.0546173642162557 6.836904916831179 30.922116259097294
rtibia 31.890806915465493
rfoot -10.90676119324252 -4.7053180647117685
rtoes 4.925291608401733
lfemur -14.018008702681282 -2.1067302628357547 -18.310892477705092
ltibia 30.663383933167125
lfoot -9.065989149159057 -0.7245525165713689
ltoes -3.737602156416139
8
root 0 0 0 -2.0941923263857594 -5.571179152126032 -6.348033301007042
lowerback 10.603045172142696 2.2243658568491536 5.509996329995653
upperback 0.24312694734271545 3.7045965347884655 1.613419823420418
thorax -5.58335787875594 1.712008726930077 -1.9382943221210027
lowerneck -16.400162381998253 -3.0984646872540753 -1.2648321968468905
upperneck 19.602551379592196 -4.012138802325879 0.2349663997097442
head 8.913566737593845 -1.9364247940203931 -0.21328535156307943
rclavicle -5.077199053918136E-16 -2.1682725588357122E-16
rhumerus -27.413027547837515 -16.988845832135105 -77.09177207703578
rradius 28.376437471386573
rwrist 4.806668470503889
rhand -18.35494017334469 19.658822223327245
rfingers 7.125020000000004
rthumb 7.933968510906546 -10.15397089592897
lclavicle -5.005091411464324E-16 -1.979098342273655E-16
lhumerus -35.30220361165682 1.6218787080323158 84.28030296938604
lradius 25.801568469233228
lwrist 6.491367108950435
lhand -25.831131330847214 27.857133677322377
lfingers 7.125020000000004
lthumb 0.7004575144861298 57.7773504773521
rfemur -3.6606874994425542 6.654321499758396 30.60864737305381
rtibia 32.75250664673241
rfoot -10.566825114990586 -4.762839701289507
rtoes 4.930575666493999
lfemur -13.48449204503303 -2.083083932638628 -18.483793154855405
ltibia 30.877882337957082
lfoot -8.903555842690878 -0.9759134853943072
ltoes -3.818972029728553
